<mxfile host="app.diagrams.net" modified="2024-06-10T21:23:08.688Z" agent="Mozilla/5.0 (Windows NT 10.0; Win64; x64) AppleWebKit/537.36 (KHTML, like Gecko) Chrome/125.0.0.0 Safari/537.36" etag="F01whrNKviNQ1z5tvejl" version="24.2.1" type="device">
  <diagram name="Page-1" id="5d7acffa-a066-3a61-03fe-96351882024d">
    <mxGraphModel dx="1140" dy="722" grid="1" gridSize="10" guides="1" tooltips="1" connect="1" arrows="1" fold="1" page="1" pageScale="1" pageWidth="1600" pageHeight="900" background="#ffffff" math="0" shadow="0">
      <root>
        <mxCell id="0" />
        <mxCell id="1" parent="0" />
        <mxCell id="1_gvwkqx-O_8GdGv2Vqb-5" style="edgeStyle=orthogonalEdgeStyle;rounded=0;orthogonalLoop=1;jettySize=auto;html=1;exitX=0.5;exitY=1;exitDx=0;exitDy=0;entryX=0.5;entryY=0;entryDx=0;entryDy=0;strokeColor=default;flowAnimation=0;" edge="1" parent="1" source="1_gvwkqx-O_8GdGv2Vqb-1" target="1_gvwkqx-O_8GdGv2Vqb-2">
          <mxGeometry relative="1" as="geometry" />
        </mxCell>
        <mxCell id="1_gvwkqx-O_8GdGv2Vqb-6" style="edgeStyle=orthogonalEdgeStyle;rounded=0;orthogonalLoop=1;jettySize=auto;html=1;exitX=0.5;exitY=1;exitDx=0;exitDy=0;" edge="1" parent="1" source="1_gvwkqx-O_8GdGv2Vqb-1" target="1_gvwkqx-O_8GdGv2Vqb-4">
          <mxGeometry relative="1" as="geometry" />
        </mxCell>
        <mxCell id="1_gvwkqx-O_8GdGv2Vqb-7" style="edgeStyle=orthogonalEdgeStyle;rounded=0;orthogonalLoop=1;jettySize=auto;html=1;exitX=0.5;exitY=1;exitDx=0;exitDy=0;entryX=0.5;entryY=0;entryDx=0;entryDy=0;" edge="1" parent="1" source="1_gvwkqx-O_8GdGv2Vqb-1" target="1_gvwkqx-O_8GdGv2Vqb-3">
          <mxGeometry relative="1" as="geometry" />
        </mxCell>
        <mxCell id="1_gvwkqx-O_8GdGv2Vqb-1" value="&lt;span id=&quot;docs-internal-guid-6ce11726-7fff-1146-1cdb-6620ae8379b0&quot;&gt;&lt;span style=&quot;font-size: 12pt; font-family: Arial, sans-serif; background-color: transparent; font-variant-numeric: normal; font-variant-east-asian: normal; font-variant-alternates: normal; font-variant-position: normal; vertical-align: baseline; white-space-collapse: preserve;&quot;&gt;FileArchiver&lt;/span&gt;&lt;/span&gt;" style="rounded=0;whiteSpace=wrap;html=1;" vertex="1" parent="1">
          <mxGeometry x="720" y="80" width="120" height="60" as="geometry" />
        </mxCell>
        <mxCell id="1_gvwkqx-O_8GdGv2Vqb-2" value="&lt;font style=&quot;font-size: 14px;&quot;&gt;Login&lt;/font&gt;" style="rounded=0;whiteSpace=wrap;html=1;" vertex="1" parent="1">
          <mxGeometry x="400" y="200" width="120" height="60" as="geometry" />
        </mxCell>
        <mxCell id="1_gvwkqx-O_8GdGv2Vqb-3" value="&lt;font style=&quot;font-size: 14px;&quot;&gt;Register&lt;/font&gt;" style="rounded=0;whiteSpace=wrap;html=1;" vertex="1" parent="1">
          <mxGeometry x="1040" y="200" width="120" height="60" as="geometry" />
        </mxCell>
        <mxCell id="1_gvwkqx-O_8GdGv2Vqb-4" value="&lt;font style=&quot;font-size: 14px;&quot;&gt;Main&lt;/font&gt;" style="rounded=0;whiteSpace=wrap;html=1;" vertex="1" parent="1">
          <mxGeometry x="720" y="200" width="120" height="60" as="geometry" />
        </mxCell>
      </root>
    </mxGraphModel>
  </diagram>
</mxfile>
